<svg width="512" height="512" viewBox="0 0 512 512" fill="none" xmlns="http://www.w3.org/2000/svg">
  <style>
    path {
    fill: #000;
    }
    @media (prefers-color-scheme: dark) {
    path {
    fill: #FFF;
    }
    }
  </style>
  <path fill-rule="evenodd" clip-rule="evenodd"
    d="M368.524 7.1932C346.575 7.1932 328.783 24.9857 328.783 46.9339C328.783 46.9731 328.783 47.0123 328.783 47.0516L328.783 47.1134L321.597 46.1035C322.04 20.5657 342.88 0 368.524 0C394.444 0 415.457 21.013 415.457 46.9339C415.457 60.8375 409.412 73.3292 399.806 81.9233C398.247 80.073 396.672 78.2646 395.082 76.4973C403.175 69.2224 408.264 58.6725 408.264 46.9339C408.264 24.9857 390.472 7.1932 368.524 7.1932ZM395.082 76.4973C388.043 82.8246 378.733 86.6745 368.524 86.6745C346.635 86.6745 328.88 68.979 328.783 47.1134L369.998 52.9057C378.716 59.7801 387.093 67.6186 395.082 76.4973ZM399.806 81.9233C391.503 89.3513 380.541 93.8677 368.524 93.8677C342.603 93.8677 321.59 72.8547 321.59 46.9339C321.59 46.6565 321.592 46.3797 321.597 46.1035L181.468 26.4097C180.157 26.2254 179.028 27.1507 178.843 28.462L174.449 59.7316C174.264 61.043 175.178 62.2554 176.489 62.4397L197.03 65.3265C198.341 65.5108 199.255 66.7233 199.071 68.0346L197.8 77.0801C197.615 78.3914 198.529 79.6039 199.84 79.7882L208.195 80.9623L204.425 107.785L199.519 107.095C198.208 106.911 196.995 107.824 196.811 109.136L195.832 116.105C112.324 130.026 43.988 197.168 31.7444 285.53C16.6979 394.121 91.6879 494.796 200.25 510.053C308.812 525.311 408.647 449.206 424.115 340.674C436.701 252.36 389.52 168.983 313.084 132.583L314.063 125.614C314.247 124.303 313.334 123.091 312.022 122.906L307.116 122.217L310.885 95.3946L362.997 102.718C432.429 143.356 455.972 222.396 477.938 316.642C478.614 319.54 482.5 318.883 482.158 315.927C469.227 203.9 439.673 129.24 399.806 81.9233ZM96.3219 242.162C92.7201 243.194 90.011 246.174 89.3248 249.858L82.2064 288.072C81.9253 289.581 81.9992 291.135 82.4223 292.61L119.43 421.672C119.853 423.147 120.614 424.503 121.652 425.634L147.939 454.27C150.473 457.03 154.349 458.122 157.951 457.089L248.097 431.24C255.164 429.214 257.628 420.459 252.657 415.044L226.649 386.713C224.115 383.953 220.239 382.862 216.637 383.894L168.871 397.591L137.111 286.832L184.877 273.135C188.48 272.102 191.188 269.122 191.874 265.439L198.917 227.631C200.263 220.404 193.534 214.286 186.467 216.313L96.3219 242.162ZM225.78 205.04C222.205 206.065 219.507 209.008 218.797 212.66L211.344 250.971C211.046 252.503 211.115 254.084 211.546 255.586L225.206 303.224C225.636 304.725 226.416 306.103 227.48 307.244L258.236 340.216L316.201 323.595L324.613 352.933L255.619 372.716C248.519 374.752 246.074 383.569 251.112 388.971L277.45 417.206C279.986 419.926 283.834 420.992 287.409 419.967L365.402 397.603C369.004 396.57 371.713 393.591 372.4 389.907L372.4 389.906L379.945 349.398L364.998 297.271L337.133 266.917L337.133 266.916C334.598 264.155 330.721 263.065 327.12 264.097L274.646 279.144L266.234 249.807L318.708 234.76C322.309 233.727 325.019 230.748 325.705 227.064L325.705 227.063L332.748 189.256C334.094 182.028 327.364 175.911 320.298 177.937L225.78 205.04Z"
  />
</svg>
