<svg width="512" height="512" viewBox="0 0 512 512" fill="none" xmlns="http://www.w3.org/2000/svg">
<path fill-rule="evenodd" clip-rule="evenodd" d="M368.522 7.1932C346.574 7.1932 328.781 24.9857 328.781 46.9339C328.781 46.9731 328.781 47.0123 328.781 47.0516L328.781 47.1134L321.595 46.1035C322.038 20.5657 342.878 0 368.522 0C394.443 0 415.456 21.013 415.456 46.9339C415.456 60.8375 409.41 73.3292 399.804 81.9233C398.245 80.073 396.67 78.2646 395.08 76.4973C403.173 69.2224 408.262 58.6725 408.262 46.9339C408.262 24.9857 390.47 7.1932 368.522 7.1932ZM395.08 76.4973C388.042 82.8246 378.731 86.6745 368.522 86.6745C346.633 86.6745 328.878 68.979 328.781 47.1134L369.996 52.9057C378.714 59.7801 387.091 67.6186 395.08 76.4973ZM399.804 81.9233C391.501 89.3513 380.539 93.8677 368.522 93.8677C342.601 93.8677 321.588 72.8547 321.588 46.9339C321.588 46.6565 321.59 46.3797 321.595 46.1035L181.467 26.4097C180.155 26.2254 179.026 27.1507 178.841 28.462L174.447 59.7316C174.262 61.043 175.176 62.2554 176.487 62.4397L197.028 65.3265C198.34 65.5108 199.253 66.7233 199.069 68.0346L197.798 77.0801C197.613 78.3914 198.527 79.6039 199.838 79.7882L208.193 80.9623L204.423 107.785L199.517 107.095C198.206 106.911 196.993 107.824 196.809 109.136L195.83 116.105C112.322 130.026 43.986 197.168 31.7425 285.53C16.6959 394.121 91.686 494.796 200.248 510.053C308.81 525.311 408.645 449.206 424.113 340.674C436.699 252.36 389.518 168.983 313.082 132.583L314.061 125.614C314.246 124.303 313.332 123.091 312.021 122.906L307.114 122.217L310.883 95.3946L362.995 102.718C432.427 143.356 455.97 222.396 477.936 316.642C478.612 319.54 482.498 318.883 482.156 315.927C469.225 203.9 439.671 129.24 399.804 81.9233ZM96.32 242.162C92.7181 243.194 90.009 246.174 89.3228 249.858L82.2044 288.072C81.9234 289.581 81.9973 291.135 82.4203 292.61L119.428 421.672C119.851 423.147 120.612 424.503 121.65 425.634L147.937 454.27C150.471 457.03 154.347 458.122 157.949 457.089L248.095 431.24C255.162 429.214 257.626 420.459 252.655 415.044L226.647 386.713C224.113 383.953 220.237 382.862 216.635 383.894L168.869 397.591L137.109 286.832L184.875 273.135C188.478 272.102 191.186 269.122 191.872 265.439L198.915 227.631C200.261 220.404 193.532 214.286 186.465 216.313L96.32 242.162ZM225.778 205.04C222.203 206.065 219.505 209.008 218.795 212.66L211.342 250.971C211.044 252.503 211.113 254.084 211.544 255.586L225.204 303.224C225.634 304.725 226.414 306.103 227.478 307.244L258.234 340.216L316.199 323.595L324.611 352.933L255.617 372.716C248.517 374.752 246.072 383.569 251.11 388.971L277.448 417.206C279.984 419.926 283.832 420.992 287.407 419.967L365.4 397.603C369.002 396.57 371.711 393.591 372.398 389.907L372.398 389.906L379.943 349.398L364.996 297.271L337.131 266.917L337.131 266.916C334.596 264.155 330.719 263.065 327.118 264.097L274.644 279.144L266.232 249.807L318.706 234.76C322.307 233.727 325.017 230.748 325.703 227.064L325.703 227.063L332.746 189.256C334.092 182.028 327.362 175.911 320.296 177.937L225.778 205.04Z" fill="#6A24FF"/>
</svg>
